<?xml version="1.0" standalone="no"?>
<!DOCTYPE svg PUBLIC "-//W3C//DTD SVG 20010904//EN"
 "http://www.w3.org/TR/2001/REC-SVG-20010904/DTD/svg10.dtd">
<svg version="1.0" xmlns="http://www.w3.org/2000/svg"
 width="897.000000pt" height="897.000000pt" viewBox="0 0 897.000000 897.000000"
 preserveAspectRatio="xMidYMid meet">
<metadata>
Created by potrace 1.11, written by Peter Selinger 2001-2013
</metadata>
<g transform="translate(0.000000,897.000000) scale(0.100000,-0.100000)"
fill="#000000" stroke="none">
<path d="M2990 8239 c-47 -5 -98 -11 -115 -14 -42 -8 -95 -15 -127 -18 -16 -1
-28 -6 -28 -11 0 -4 -9 -6 -20 -3 -11 3 -23 1 -26 -4 -3 -5 -16 -9 -29 -9 -13
0 -27 -4 -30 -10 -3 -5 -19 -10 -35 -10 -16 0 -31 -4 -35 -10 -3 -5 -12 -7
-20 -3 -8 3 -23 2 -32 -2 -10 -5 -31 -9 -48 -11 -16 -1 -41 -5 -55 -8 -14 -3
-34 -8 -45 -10 -61 -13 -160 -42 -163 -49 -2 -4 -8 -4 -13 -1 -6 3 -16 0 -24
-6 -8 -7 -15 -9 -15 -5 0 4 -7 1 -17 -6 -9 -8 -18 -13 -20 -11 -4 4 -96 -29
-103 -37 -3 -4 -11 -7 -19 -9 -23 -5 -181 -85 -228 -115 -24 -15 -47 -27 -52
-27 -5 0 -12 -7 -15 -16 -4 -9 -9 -14 -12 -11 -6 5 -15 0 -49 -30 -7 -7 -17
-13 -20 -13 -21 0 -315 -273 -315 -293 0 -5 -14 -20 -30 -34 -17 -14 -29 -27
-26 -30 2 -2 -6 -14 -18 -27 -11 -12 -27 -31 -33 -42 -7 -10 -34 -53 -61 -94
-27 -41 -57 -94 -67 -118 -10 -23 -22 -42 -27 -42 -4 0 -8 -7 -8 -15 0 -8 -8
-29 -18 -47 -10 -18 -22 -45 -26 -60 -3 -16 -11 -28 -17 -28 -6 0 -7 -5 -4
-10 4 -6 -1 -22 -10 -36 -9 -13 -13 -29 -10 -34 3 -5 1 -11 -5 -15 -6 -4 -8
-10 -5 -15 3 -5 1 -11 -5 -15 -6 -4 -8 -11 -5 -16 4 -5 0 -12 -8 -15 -8 -3
-13 -13 -10 -22 2 -10 -1 -31 -8 -47 -7 -17 -11 -34 -10 -39 1 -4 -3 -14 -9
-21 -6 -7 -10 -17 -9 -21 1 -5 -5 -26 -14 -46 -10 -21 -17 -42 -17 -48 0 -5
-5 -10 -11 -10 -5 0 -7 -4 -4 -10 3 -5 0 -20 -7 -32 -7 -13 -12 -26 -13 -30 0
-3 -3 -9 -7 -13 -4 -4 -4 -13 -1 -21 3 -8 0 -14 -7 -14 -7 0 -10 -7 -7 -15 4
-8 2 -17 -2 -20 -5 -3 -15 -29 -21 -57 -7 -29 -16 -57 -20 -63 -4 -5 -8 -17
-8 -25 -1 -15 -7 -46 -18 -97 -4 -16 -7 -41 -9 -58 -2 -16 -7 -39 -11 -50 -12
-27 -12 -564 0 -590 5 -11 9 -35 8 -52 0 -18 3 -33 8 -33 4 0 8 -10 8 -22 0
-13 3 -34 7 -48 4 -14 8 -32 9 -40 2 -8 8 -28 14 -43 7 -15 11 -31 10 -35 -1
-4 6 -24 15 -46 9 -21 17 -41 17 -45 0 -12 75 -176 82 -179 5 -2 6 -8 2 -13
-3 -5 0 -9 5 -9 6 0 11 -7 11 -15 0 -27 127 -226 203 -317 12 -14 36 -43 52
-63 17 -20 72 -78 124 -128 51 -51 121 -120 155 -154 169 -174 247 -251 278
-275 83 -69 217 -168 226 -168 6 0 12 -3 14 -7 2 -5 17 -16 33 -26 60 -35 180
-102 185 -102 3 -1 14 -5 25 -11 11 -6 58 -25 105 -43 47 -18 93 -37 102 -42
10 -5 29 -9 43 -9 15 0 24 -3 22 -7 -3 -5 5 -9 16 -10 24 -2 62 -10 62 -13 0
-2 35 -10 60 -13 12 -2 25 -6 30 -9 6 -3 55 -11 110 -18 55 -7 107 -14 115
-17 8 -3 186 -5 395 -4 332 1 395 3 500 21 66 11 129 22 140 25 11 2 29 6 40
9 11 2 20 5 20 6 0 1 7 3 15 5 44 10 129 35 155 46 17 6 39 14 49 16 11 2 24
7 30 11 6 5 39 19 74 32 34 14 62 28 62 32 0 5 9 8 20 8 11 0 20 5 20 11 0 5
5 7 10 4 6 -3 10 -2 10 3 0 5 10 13 23 17 12 4 24 8 27 10 3 1 14 5 25 10 11
5 24 15 28 22 5 7 12 11 16 9 4 -3 17 2 27 12 33 29 71 51 101 57 15 2 39 8
53 11 14 3 33 7 43 7 9 1 17 4 17 7 0 4 22 16 48 28 65 29 155 112 191 175 16
29 30 56 29 61 0 5 6 12 12 16 7 4 15 28 17 54 3 25 10 46 15 46 5 0 7 4 4 9
-4 5 -2 11 2 13 5 1 32 35 60 73 29 39 62 82 73 97 11 15 20 30 19 34 -1 4 3
10 8 13 5 3 24 33 43 66 18 33 39 66 46 73 7 8 11 18 8 23 -4 5 -2 9 4 9 5 0
13 10 17 22 3 12 13 28 20 36 8 7 12 17 9 22 -3 4 2 13 10 20 8 7 15 18 15 25
0 17 31 78 44 87 6 4 7 8 2 8 -4 0 -1 11 8 25 9 14 14 25 11 25 -3 0 0 10 7
23 7 12 12 25 13 29 0 3 3 10 8 14 4 4 7 16 7 26 0 10 4 18 10 18 5 0 9 3 9 8
-1 4 0 9 1 12 1 3 3 12 5 20 2 8 15 51 29 94 14 43 26 87 26 97 0 11 5 19 11
19 5 0 8 4 4 9 -3 5 -1 12 4 15 5 4 8 14 6 24 -1 9 1 22 6 27 4 6 6 20 5 30
-2 11 1 25 6 32 5 7 7 17 4 22 -4 5 -2 12 3 15 5 3 12 31 16 61 3 30 11 55 16
55 6 0 5 8 -1 20 -6 11 -7 20 -2 20 4 0 8 8 9 18 2 27 11 97 13 97 16 0 13
605 -3 645 -3 8 -5 26 -3 40 1 14 0 30 -3 35 -7 13 -12 34 -15 71 -2 17 -6 35
-9 40 -5 9 -18 77 -20 102 0 6 -4 12 -8 12 -4 0 -6 8 -4 18 1 9 -2 22 -7 29
-5 7 -7 16 -4 22 3 5 3 11 -1 13 -8 3 -59 141 -68 183 -3 11 -9 21 -15 23 -5
2 -10 9 -10 15 0 15 -103 221 -112 225 -5 2 -8 10 -8 17 0 8 -8 19 -17 24 -10
6 -14 11 -10 11 4 0 3 6 -3 13 -6 6 -20 26 -30 42 -43 67 -57 84 -115 146 -14
14 -25 29 -25 33 0 9 -132 141 -140 141 -3 0 -20 15 -38 33 -17 17 -36 32 -42
32 -6 0 -13 7 -16 15 -4 8 -10 15 -15 15 -4 0 -32 18 -61 40 -29 21 -57 39
-62 39 -5 -1 -13 6 -18 15 -5 9 -15 16 -23 16 -7 0 -15 4 -17 8 -1 4 -43 28
-91 52 -49 24 -91 48 -93 52 -3 5 -9 6 -14 3 -5 -3 -11 -1 -15 5 -4 6 -11 8
-16 5 -5 -4 -9 -2 -9 3 0 5 -19 15 -42 22 -24 8 -52 18 -63 24 -11 6 -23 11
-27 12 -5 1 -10 3 -13 4 -3 1 -8 3 -12 4 -12 3 -126 38 -143 44 -8 3 -28 7
-45 9 -16 3 -35 9 -42 15 -7 5 -17 7 -23 3 -6 -4 -17 -2 -23 4 -7 5 -22 10
-32 10 -41 1 -91 14 -116 32 -14 10 -29 16 -32 13 -3 -3 -24 4 -46 16 -23 11
-46 18 -50 15 -5 -3 -11 -2 -13 3 -3 8 -138 49 -188 57 -14 3 -36 7 -50 9
-174 33 -378 42 -550 25z m138 -64 c-9 -9 -79 -12 -84 -4 -2 4 15 9 38 11 45
3 55 2 46 -7z m255 -8 c32 -3 77 -9 100 -13 23 -4 48 -7 56 -5 7 1 11 -2 8 -6
-6 -10 -182 -10 -207 0 -17 6 -18 6 -112 11 -65 4 -88 10 -88 24 0 6 91 2 243
-11z m211 -38 c3 -3 -6 -6 -20 -7 -14 -1 -23 2 -20 7 6 9 31 9 40 0z m-624
-19 c23 -2 12 -5 -33 -11 -38 -4 -76 -11 -85 -15 -10 -4 -25 -6 -34 -5 -9 1
-40 -5 -67 -13 -28 -8 -51 -12 -51 -9 0 3 -6 1 -12 -4 -7 -6 -20 -10 -28 -11
-8 0 -60 -14 -115 -31 -55 -18 -107 -34 -115 -36 -16 -4 -145 -51 -170 -62 -8
-3 -18 -5 -22 -5 -5 1 -8 -2 -8 -8 0 -5 -5 -10 -10 -10 -18 0 -130 -53 -130
-62 0 -4 -6 -8 -14 -8 -18 0 -129 -58 -137 -72 -3 -5 -8 -8 -10 -7 -5 4 -100
-52 -117 -68 -7 -7 -17 -13 -22 -13 -5 0 -16 -7 -25 -16 -23 -23 -32 -8 -10
16 10 11 20 18 23 16 5 -5 24 9 50 37 9 9 20 17 25 17 4 0 13 5 20 11 17 15
178 119 184 119 3 0 19 10 36 22 18 13 34 23 37 23 5 0 114 52 173 82 15 8 27
11 27 8 0 -4 7 1 16 10 9 9 23 14 30 11 8 -3 14 -1 14 4 0 6 8 10 18 10 10 0
27 6 37 14 11 8 25 12 32 9 7 -3 13 0 13 7 0 6 6 10 13 7 6 -2 25 2 40 10 16
8 35 12 43 9 7 -3 16 -1 19 4 4 6 27 11 53 11 26 1 60 4 77 8 27 5 151 6 235
1z m538 -69 c15 -8 22 -8 22 -1 0 7 5 8 13 3 6 -4 14 -8 17 -9 22 -4 72 -18
105 -30 22 -7 51 -16 65 -18 25 -5 79 -24 135 -47 17 -7 36 -13 43 -15 23 -4
126 -48 151 -63 13 -9 33 -17 44 -18 11 -2 25 -7 31 -12 6 -4 52 -30 101 -56
50 -26 98 -54 108 -63 9 -8 17 -11 17 -6 0 5 5 2 10 -6 5 -8 13 -15 17 -15 11
-1 85 -50 155 -103 51 -38 228 -229 228 -246 0 -3 8 -14 18 -24 9 -10 23 -27
29 -38 7 -10 31 -45 53 -77 22 -32 40 -62 40 -67 0 -6 4 -10 8 -10 5 0 19 -21
32 -47 13 -27 27 -50 30 -53 9 -6 143 -271 145 -285 0 -5 10 -31 23 -57 12
-26 22 -52 22 -57 0 -6 5 -11 11 -11 5 0 7 -5 4 -10 -4 -6 1 -22 9 -35 9 -14
14 -25 10 -25 -4 0 -1 -7 6 -15 6 -8 9 -19 5 -25 -3 -5 -2 -10 4 -10 5 0 10
-8 10 -17 0 -22 4 -40 21 -78 7 -16 12 -35 11 -41 -1 -7 4 -25 10 -40 11 -27
19 -64 22 -106 1 -10 5 -18 9 -18 5 0 8 -12 8 -27 0 -16 6 -62 15 -103 9 -41
18 -100 21 -130 9 -107 10 -335 1 -347 -5 -7 -7 -22 -4 -33 3 -11 1 -22 -3
-25 -5 -3 -12 -26 -16 -50 -3 -25 -10 -48 -15 -51 -5 -3 -7 -9 -4 -14 3 -5 1
-11 -5 -15 -6 -4 -8 -10 -5 -15 3 -4 -2 -24 -10 -44 -8 -20 -12 -36 -9 -36 4
0 2 -6 -3 -12 -6 -7 -18 -39 -28 -70 -10 -32 -22 -58 -27 -58 -6 0 -8 -7 -4
-15 3 -8 1 -15 -5 -15 -6 0 -9 -7 -6 -15 4 -8 2 -17 -4 -20 -5 -4 -7 -10 -4
-15 3 -4 -2 -10 -10 -14 -8 -3 -15 -12 -15 -21 0 -9 -8 -30 -17 -48 -9 -18
-18 -34 -18 -37 -3 -14 -74 -144 -116 -213 -27 -43 -49 -83 -49 -88 0 -5 -4
-9 -10 -9 -5 0 -10 -6 -10 -12 0 -7 -11 -26 -24 -43 -14 -16 -40 -50 -58 -74
-18 -25 -38 -45 -43 -45 -22 0 -80 -60 -100 -103 -9 -18 -21 -33 -27 -33 -6 0
-9 -3 -5 -6 3 -3 -1 -13 -9 -22 -8 -10 -15 -21 -16 -27 -5 -22 -146 -148 -168
-150 -3 -1 -18 -8 -35 -17 -47 -26 -95 -75 -107 -109 -11 -33 -34 -61 -59 -72
-29 -14 -54 -32 -67 -50 -7 -9 -18 -15 -23 -12 -5 4 -9 1 -9 -6 0 -7 -3 -10
-6 -7 -3 3 -17 -5 -31 -18 -14 -13 -32 -24 -39 -24 -8 0 -14 -3 -14 -7 0 -5
-10 -13 -23 -19 -12 -6 -43 -23 -70 -37 -26 -15 -49 -27 -52 -27 -16 0 -62
-14 -72 -23 -7 -5 -13 -6 -13 -2 0 4 -6 2 -13 -4 -8 -6 -16 -8 -20 -5 -3 3
-14 1 -24 -4 -10 -6 -40 -13 -67 -16 -26 -3 -51 -8 -55 -10 -7 -5 -94 -19
-118 -19 -7 0 -13 -4 -13 -8 0 -4 -18 -6 -40 -4 -22 2 -40 0 -40 -4 0 -4 -111
-7 -247 -6 -137 1 -248 3 -248 5 0 1 -20 3 -45 4 -25 2 -52 6 -60 9 -8 4 -24
5 -35 3 -11 -2 -24 0 -30 4 -5 4 -30 11 -55 14 -25 3 -62 9 -82 11 -37 6 -144
47 -203 79 -16 9 -36 16 -42 16 -7 0 -13 5 -13 11 0 5 -4 7 -10 4 -5 -3 -10
-2 -10 3 0 6 -10 12 -23 16 -13 3 -40 16 -59 30 -20 13 -39 22 -42 18 -3 -3
-6 0 -6 7 0 7 -5 9 -10 6 -6 -3 -13 0 -16 9 -3 8 -18 19 -32 24 -15 6 -65 37
-112 71 -47 33 -93 66 -103 73 -45 31 -125 97 -179 149 -26 25 -48 44 -48 41
0 -2 -36 31 -80 74 -44 42 -78 79 -76 81 2 2 -16 23 -39 46 -24 23 -71 78
-104 122 -33 44 -67 89 -76 100 -14 19 -38 55 -101 155 -34 54 -68 122 -66
133 1 4 -3 7 -10 7 -6 0 -8 3 -5 6 4 4 -1 19 -11 33 -23 34 -43 73 -46 91 -1
8 -9 29 -18 45 -8 17 -25 62 -37 100 -13 39 -25 77 -28 85 -7 18 -9 27 -16 60
-3 14 -8 32 -11 40 -8 21 -17 68 -23 113 -3 20 -8 37 -12 37 -4 0 -6 12 -5 28
1 15 -1 32 -5 37 -15 26 -16 530 -1 530 1 0 4 11 6 25 7 58 16 108 31 160 8
30 16 64 18 75 2 11 4 21 5 23 2 1 3 5 5 10 1 4 4 14 7 22 3 8 13 40 23 70 10
30 25 71 34 90 8 19 14 38 13 43 -1 4 2 7 8 7 5 0 10 9 10 19 0 11 5 23 10 26
6 4 8 11 5 16 -4 5 -2 9 3 9 5 0 17 19 28 43 17 39 91 165 104 177 3 3 11 17
18 31 33 64 303 375 315 363 2 -3 21 14 41 37 20 23 36 38 36 33 1 -5 8 0 18
12 10 11 31 29 47 40 17 10 36 27 43 36 7 10 18 16 23 13 5 -4 9 -2 9 4 0 15
182 126 323 198 67 34 127 66 132 70 6 4 19 9 29 11 11 2 30 11 43 19 12 8 23
12 23 8 0 -4 11 0 25 9 13 9 29 16 34 16 5 0 22 5 38 12 15 6 31 11 36 10 4
-1 7 3 7 9 0 5 5 7 10 4 6 -3 16 -3 23 2 12 7 29 12 57 17 9 1 20 5 26 9 12 7
122 36 159 41 11 2 21 5 23 6 1 1 11 4 22 5 11 1 21 4 23 5 1 1 16 4 32 5 17
2 30 4 30 5 0 2 11 4 25 5 14 1 33 5 43 10 9 4 23 5 31 2 8 -3 20 0 26 8 8 10
18 11 36 5 13 -5 24 -6 24 -1 0 5 10 9 23 10 12 0 47 1 77 2 30 0 61 4 68 8
21 12 165 6 190 -8z m365 -18 c17 -1 33 -7 36 -11 3 -4 13 -7 21 -7 8 1 21 -4
29 -9 8 -6 17 -10 20 -9 10 4 131 -60 131 -69 0 -5 4 -7 9 -4 5 3 17 -2 28
-12 10 -9 14 -14 9 -9 -6 4 -18 7 -27 7 -9 0 -22 7 -29 15 -7 9 -19 14 -26 11
-7 -3 -16 -1 -19 3 -5 9 -126 60 -155 66 -8 2 -16 4 -17 5 -3 3 -8 4 -40 15
-13 4 -23 12 -23 17 0 5 5 6 11 2 7 -4 26 -9 42 -11z m-1798 -74 c-33 -17 -63
-36 -67 -42 -4 -7 -8 -8 -8 -3 0 5 -9 1 -20 -9 -12 -11 -29 -20 -38 -21 -9 -2
-18 -8 -20 -13 -2 -6 -10 -11 -18 -11 -8 0 -14 -4 -14 -10 0 -5 -6 -10 -14
-10 -8 0 -16 -4 -18 -8 -1 -5 -25 -23 -53 -42 -27 -18 -52 -36 -55 -40 -3 -3
-23 -19 -45 -36 -22 -16 -46 -37 -53 -46 -7 -10 -17 -18 -22 -18 -5 0 -27 -18
-49 -40 -22 -22 -43 -40 -47 -40 -4 0 -46 -40 -95 -90 -48 -49 -92 -90 -98
-90 -6 0 -11 -7 -11 -15 0 -8 -15 -30 -32 -49 -18 -19 -45 -50 -60 -68 -15
-18 -39 -46 -53 -63 -14 -16 -25 -36 -25 -44 0 -8 -3 -12 -6 -8 -7 7 -54 -58
-54 -73 0 -6 -4 -10 -8 -10 -5 0 -14 -10 -21 -22 -11 -23 -11 -23 -5 2 4 14
11 28 17 31 5 4 6 12 3 18 -4 6 -4 11 1 11 4 0 24 29 42 65 19 36 39 65 44 65
4 0 6 4 2 9 -3 5 -1 12 4 16 13 7 71 94 71 104 0 5 7 11 15 15 8 3 15 11 15
18 0 7 16 27 35 43 19 17 35 33 35 37 0 11 154 168 164 168 4 0 21 14 37 31
16 17 29 28 29 24 0 -5 8 2 19 13 10 12 24 22 30 22 6 0 14 7 17 15 4 8 12 15
20 15 8 0 14 4 14 9 0 5 8 11 18 14 25 8 75 40 89 57 7 8 13 11 13 7 0 -5 7
-1 16 7 8 9 23 16 33 16 10 0 26 9 36 20 10 11 20 18 22 16 2 -2 48 16 101 40
112 50 155 59 67 13z m2335 -113 c19 -10 37 -22 40 -25 7 -9 61 -39 93 -52 15
-6 27 -15 27 -20 0 -5 7 -9 15 -9 9 0 18 -7 21 -15 4 -8 9 -13 13 -10 4 2 18
-6 32 -18 34 -31 97 -78 104 -77 3 0 23 -20 45 -45 22 -26 40 -44 40 -42 0 9
73 -67 132 -138 32 -38 67 -79 78 -90 11 -12 20 -26 20 -33 0 -7 5 -12 10 -12
6 0 10 -7 10 -15 0 -8 5 -15 10 -15 6 0 10 -6 10 -13 0 -7 9 -23 19 -34 11
-12 30 -42 42 -67 11 -25 25 -46 31 -46 5 0 7 -4 4 -9 -4 -5 -3 -11 1 -13 10
-4 64 -114 78 -158 3 -10 27 -65 36 -82 5 -10 9 -25 9 -33 0 -8 5 -15 11 -15
5 0 7 -4 4 -10 -3 -5 1 -23 10 -40 8 -16 13 -30 10 -30 -4 0 -3 -6 1 -12 5 -7
9 -19 11 -28 1 -8 12 -49 23 -90 11 -41 23 -91 26 -110 8 -47 12 -65 14 -65 1
0 4 -13 6 -30 2 -16 5 -47 8 -68 3 -27 1 -37 -7 -34 -7 2 -13 17 -14 33 -4 55
-10 99 -16 114 -3 8 -11 40 -17 70 -6 30 -14 62 -17 70 -4 8 -5 21 -4 28 1 8
-3 20 -10 28 -6 8 -8 14 -4 14 4 0 2 7 -5 15 -7 8 -9 15 -5 15 4 0 2 6 -4 13
-6 8 -8 17 -4 20 3 4 1 7 -5 7 -7 0 -12 9 -12 19 0 11 -7 26 -15 34 -8 8 -12
17 -9 20 3 3 -8 31 -24 64 -16 32 -40 81 -53 108 -13 28 -27 52 -31 53 -5 2
-8 8 -8 14 0 6 -16 32 -35 58 -19 26 -35 53 -35 59 0 6 -4 11 -8 11 -4 0 -16
15 -27 33 -10 17 -24 38 -29 44 -6 7 -20 24 -31 39 -53 69 -216 244 -227 244
-4 0 -25 18 -45 40 -21 22 -42 40 -46 40 -9 0 -27 16 -155 140 -50 50 -95 90
-99 90 -3 0 -13 7 -22 15 -53 48 -62 55 -71 55 -5 0 -10 5 -10 11 0 5 -4 8 -9
5 -5 -3 -11 1 -14 8 -6 16 13 9 83 -28z m297 -103 c-8 -7 -35 9 -41 23 -4 11
0 11 20 -2 13 -9 23 -18 21 -21z m73 -45 c0 -4 4 -7 9 -5 12 3 163 -117 205
-163 19 -21 44 -44 56 -50 12 -6 20 -13 18 -15 -2 -2 31 -41 74 -86 43 -45 78
-88 78 -96 0 -7 5 -13 10 -13 6 0 10 -7 10 -15 0 -8 5 -15 10 -15 6 0 15 -11
20 -25 5 -14 14 -25 20 -25 6 0 8 -4 5 -10 -3 -5 -1 -10 4 -10 6 0 11 -5 11
-10 0 -6 12 -29 27 -53 29 -44 94 -174 97 -193 1 -6 9 -23 19 -37 9 -15 17
-32 17 -38 0 -15 23 -82 30 -89 5 -5 8 -15 15 -50 2 -8 4 -17 5 -20 1 -3 2 -8
1 -12 0 -4 5 -22 13 -40 7 -18 19 -68 27 -110 7 -43 15 -78 18 -78 4 0 7 -17
8 -37 1 -21 4 -58 8 -83 10 -81 17 -203 17 -305 0 -100 -7 -250 -12 -250 -2 0
-7 -51 -13 -140 -2 -22 -6 -45 -9 -50 -3 -6 -13 -56 -23 -112 -10 -57 -22
-103 -26 -103 -5 0 -6 -7 -3 -15 4 -8 1 -21 -5 -29 -6 -7 -9 -21 -5 -30 3 -9
2 -16 -3 -16 -5 0 -10 -6 -11 -12 0 -7 -5 -30 -10 -50 -6 -21 -7 -38 -3 -38 3
0 2 -4 -4 -8 -9 -7 -32 -59 -40 -92 -2 -8 -4 -16 -5 -17 -2 -2 -3 -6 -4 -10
-3 -19 -29 -73 -33 -70 -2 2 2 17 8 33 7 16 11 35 10 42 -1 6 2 12 6 12 5 0 9
8 10 18 0 9 4 28 8 42 3 14 9 39 12 55 3 17 10 33 16 37 9 6 9 8 -1 8 -9 0 -9
5 -2 18 10 18 29 98 34 147 2 17 5 31 6 33 1 1 3 19 5 40 1 20 5 44 8 52 4 8
5 32 4 53 -2 20 1 37 5 37 5 0 9 21 9 48 0 26 2 122 5 215 4 92 3 175 -1 185
-4 9 -9 46 -11 82 -4 78 -11 145 -14 145 -1 0 -4 18 -6 40 -6 60 -11 100 -14
100 -1 0 -4 13 -6 29 -2 16 -7 32 -11 35 -4 3 -9 22 -11 41 -1 19 -5 42 -9 50
-6 16 -12 45 -14 70 -1 8 -5 20 -9 25 -4 6 -15 38 -25 73 -11 34 -22 62 -26
62 -4 0 -5 9 -2 20 3 11 0 20 -6 20 -6 0 -11 9 -11 20 0 12 -8 32 -17 47 -10
14 -18 32 -19 38 -3 22 -88 189 -106 209 -10 10 -15 23 -12 27 2 4 -1 11 -8
16 -7 4 -19 20 -27 35 -8 15 -22 37 -33 47 -10 11 -18 23 -18 26 0 5 -45 65
-75 101 -87 103 -145 163 -220 229 -26 22 -57 50 -71 63 -14 12 -32 22 -40 22
-8 0 -12 5 -9 10 7 11 65 -18 65 -32z m-2790 18 c0 -3 -15 -14 -32 -26 l-33
-22 30 26 c31 27 35 29 35 22z m-115 -76 c-3 -5 -14 -10 -23 -9 -14 0 -13 2 3
9 27 11 27 11 20 0z m-145 -6 c0 -9 -32 -33 -44 -34 -5 0 -1 9 9 20 18 20 35
26 35 14z m105 -24 c-9 -15 -45 -32 -45 -22 0 5 10 14 23 20 29 14 29 14 22 2z
m-159 -22 c4 -7 4 -10 -1 -6 -4 4 -21 -6 -39 -22 -17 -17 -35 -30 -39 -30 -7
0 63 70 70 70 1 0 5 -6 9 -12z m104 -18 c0 -6 -8 -14 -17 -17 -19 -7 -46 -29
-94 -77 -16 -15 -29 -25 -29 -21 0 4 -42 -35 -92 -87 -142 -145 -169 -174
-162 -181 4 -3 -5 -12 -19 -18 -15 -7 -24 -15 -22 -20 3 -4 0 -13 -7 -21 -19
-20 -113 -162 -113 -171 0 -4 -5 -11 -11 -15 -6 -4 -19 -25 -30 -47 -10 -22
-22 -43 -27 -46 -5 -4 -7 -11 -3 -17 3 -5 0 -12 -8 -15 -7 -3 -16 -19 -19 -35
-3 -16 -13 -37 -22 -45 -8 -9 -14 -20 -13 -24 1 -4 -13 -44 -31 -88 -18 -44
-35 -86 -36 -95 -2 -8 -4 -17 -5 -20 -1 -3 -2 -9 -1 -14 1 -4 -4 -14 -10 -22
-6 -8 -8 -14 -4 -14 4 0 2 -7 -5 -15 -6 -8 -9 -19 -5 -25 3 -5 2 -10 -3 -10
-5 0 -12 -26 -16 -59 -4 -32 -9 -61 -13 -64 -3 -4 -8 -23 -10 -44 -2 -21 -6
-51 -9 -68 -9 -60 -15 -142 -16 -212 -2 -69 -9 -90 -21 -60 -7 18 5 302 13
317 1 3 4 21 6 40 7 75 22 151 49 245 1 6 3 12 3 15 0 3 9 28 20 55 11 28 21
55 22 60 2 6 9 24 16 40 7 17 19 45 26 63 7 17 17 32 22 32 4 0 6 6 3 14 -3 7
-1 18 4 23 5 5 21 33 37 63 38 74 54 100 74 124 10 11 20 28 24 38 3 10 10 18
15 18 5 0 9 7 9 15 0 9 7 18 15 21 8 4 15 12 15 20 0 8 4 14 8 14 5 0 15 12
23 27 8 15 27 39 42 52 15 13 26 25 23 28 -6 7 249 247 298 280 22 15 45 34
49 40 4 7 15 13 22 13 8 0 15 5 15 10 0 6 5 10 10 10 6 0 10 -5 10 -10z m-240
-95 c-7 -8 -16 -15 -21 -15 -5 0 -1 8 9 18 20 22 31 19 12 -3z m3440 -295 c0
-5 -2 -10 -4 -10 -3 0 -8 5 -11 10 -3 6 -1 10 4 10 6 0 11 -4 11 -10z m15 -20
c-3 -5 -1 -10 6 -10 7 0 10 -3 6 -6 -9 -9 -28 6 -22 17 4 5 8 9 11 9 3 0 2 -4
-1 -10z m35 -40 c0 -5 20 -39 45 -76 25 -36 45 -67 45 -69 0 -3 18 -34 40 -70
22 -36 37 -65 33 -65 -3 0 1 -8 10 -17 8 -10 16 -22 17 -28 1 -5 7 -23 14 -40
7 -16 19 -48 26 -70 7 -22 15 -44 19 -50 3 -5 7 -14 8 -20 12 -51 49 -161 55
-163 4 -2 4 -10 1 -18 -3 -8 -2 -22 2 -31 5 -10 9 -27 11 -38 2 -11 6 -35 8
-52 3 -19 1 -33 -4 -33 -6 0 -10 11 -10 25 0 14 -5 25 -10 25 -6 0 -10 6 -9
13 3 14 -11 77 -20 92 -3 6 -6 13 -7 18 -1 4 -2 8 -3 10 -2 1 -4 13 -7 27 -2
14 -11 40 -20 58 -8 18 -12 37 -9 42 3 6 1 10 -4 10 -6 0 -11 7 -11 15 0 9
-13 45 -29 80 -17 36 -28 65 -25 65 3 0 -2 10 -10 22 -9 12 -16 30 -16 39 0 9
-7 22 -15 29 -8 7 -12 16 -9 21 3 5 -2 12 -11 15 -8 4 -14 11 -13 18 2 6 -14
41 -35 78 -20 36 -37 71 -37 77 0 6 -3 11 -7 11 -5 0 -16 14 -25 30 -14 25
-15 30 -3 30 8 0 15 -4 15 -10z m-3991 -287 c-8 -10 -18 -21 -22 -24 -5 -3 -8
-8 -6 -10 5 -9 -13 -49 -22 -49 -5 0 -4 10 3 23 6 12 13 28 14 35 1 8 11 20
21 28 24 18 28 17 12 -3z m-59 -128 c-8 -10 -51 -120 -51 -130 0 -2 -6 -23
-14 -45 -8 -22 -14 -42 -14 -45 -1 -14 -13 -63 -21 -82 -6 -14 -6 -23 0 -23 5
0 7 -7 3 -16 -5 -15 -7 -15 -15 0 -5 9 -5 23 1 34 5 10 8 30 7 45 -2 15 0 27
4 27 4 0 10 17 14 38 3 20 8 46 10 57 3 11 6 27 8 36 8 36 63 136 70 126 4 -6
3 -16 -2 -22z m-110 -405 c0 -5 -4 -10 -10 -10 -5 0 -10 5 -10 10 0 6 5 10 10
10 6 0 10 -4 10 -10z m4510 -59 c0 -17 -4 -32 -9 -35 -4 -3 -7 7 -5 22 1 14
-3 30 -9 34 -8 5 -6 8 6 8 12 0 17 -8 17 -29z m-4592 -248 c2 -242 4 -286 15
-313 3 -8 9 -45 12 -82 4 -38 10 -68 14 -68 5 0 6 -18 4 -40 -2 -22 0 -40 4
-40 5 0 10 -10 10 -22 1 -22 9 -60 13 -65 2 -2 3 -11 4 -20 1 -10 5 -24 9 -30
5 -7 6 -17 2 -22 -3 -5 -1 -12 4 -15 4 -3 11 -23 15 -45 3 -22 11 -52 18 -68
6 -15 13 -34 15 -40 1 -7 5 -19 6 -25 2 -7 7 -20 10 -28 3 -8 11 -33 18 -55 6
-22 19 -53 27 -70 9 -16 16 -38 17 -48 1 -11 6 -22 12 -25 6 -4 14 -18 18 -32
12 -41 119 -253 138 -274 9 -11 17 -25 16 -30 0 -6 -3 -5 -6 2 -2 6 -10 9 -15
6 -6 -4 -8 -2 -5 3 4 6 -3 19 -14 29 -11 10 -29 34 -41 53 -12 20 -30 43 -40
52 -10 9 -15 19 -11 22 3 4 -2 9 -11 13 -9 3 -16 12 -16 19 0 7 -7 18 -15 25
-8 7 -12 16 -9 21 3 5 0 9 -5 9 -6 0 -20 20 -32 45 -12 25 -25 45 -30 45 -5 0
-9 6 -9 14 0 7 -12 34 -26 60 -14 25 -22 46 -18 46 4 0 0 8 -9 18 -8 9 -16 20
-16 25 -2 22 -15 63 -23 68 -5 3 -10 17 -12 30 -2 13 -6 31 -9 39 -22 54 -30
77 -32 90 -2 14 -12 59 -20 90 -2 8 -4 15 -6 15 -1 0 -3 11 -4 25 -1 14 -5 32
-8 40 -8 22 -17 88 -21 155 -9 138 -11 257 -4 261 3 2 6 23 6 47 -1 48 11 147
20 162 4 6 7 21 8 35 1 14 3 26 4 28 1 1 4 11 5 22 1 11 4 23 5 28 1 4 2 11 1
16 -2 10 7 36 12 36 2 0 4 -107 5 -237z m4686 160 c5 -83 6 -102 6 -130 -1
-10 0 -34 2 -53 1 -20 -1 -44 -5 -54 -4 -10 -3 -24 2 -30 6 -7 6 -17 1 -26 -5
-9 -5 -19 1 -27 7 -8 7 -18 1 -30 -7 -11 -7 -24 -1 -35 5 -10 6 -18 2 -18 -4
0 -9 -17 -10 -37 0 -21 -4 -65 -7 -98 -2 -33 -6 -79 -7 -102 -1 -24 -5 -43
-10 -43 -4 0 -6 -12 -5 -27 2 -16 1 -32 -3 -38 -3 -5 -7 -21 -7 -35 -1 -14 -4
-32 -7 -40 -3 -8 -11 -42 -18 -75 -6 -33 -14 -64 -17 -69 -3 -6 -7 -19 -8 -30
-3 -32 -14 -78 -22 -90 -3 -6 -7 -18 -7 -26 -2 -26 -39 -120 -47 -120 -9 0 -6
29 4 45 3 6 13 39 23 75 9 36 22 75 27 87 6 12 8 29 5 37 -4 9 -2 16 4 16 5 0
9 6 8 13 -2 6 2 35 8 62 6 28 15 88 18 135 4 47 11 90 15 95 3 6 6 51 5 100
-1 50 0 94 3 100 11 18 13 69 15 307 1 174 5 238 14 238 7 0 13 -28 17 -77z
m-93 -6 c-10 -9 -11 -8 -5 6 3 10 9 15 12 12 3 -3 0 -11 -7 -18z m-4454 -282
c0 -8 -4 -15 -9 -15 -4 0 -8 7 -8 15 0 8 4 15 8 15 5 0 9 -7 9 -15z m0 -40 c0
-8 -4 -15 -9 -15 -4 0 -8 7 -8 15 0 8 4 15 8 15 5 0 9 -7 9 -15z m0 -45 c1
-11 -2 -20 -5 -20 -4 0 -8 9 -9 20 -1 11 2 20 5 20 4 0 8 -9 9 -20z m9 -64 c0
-19 -4 -32 -8 -30 -9 6 -7 64 2 64 3 0 6 -15 6 -34z m14 -88 c0 -19 -2 -20
-10 -8 -13 19 -13 30 0 30 6 0 10 -10 10 -22z m-60 -54 c0 -8 -5 -12 -10 -9
-6 4 -8 11 -5 16 9 14 15 11 15 -7z m13 -59 c4 -8 1 -17 -5 -21 -7 -4 -8 -3
-4 4 4 7 2 12 -4 12 -6 0 -8 5 -5 10 8 14 12 13 18 -5z m17 -35 c0 -5 -5 -10
-11 -10 -5 0 -7 5 -4 10 3 6 8 10 11 10 2 0 4 -4 4 -10z m0 -24 c0 -3 -4 -8
-10 -11 -5 -3 -10 -1 -10 4 0 6 5 11 10 11 6 0 10 -2 10 -4z m7 -40 c-3 -7 -1
-18 3 -22 5 -5 11 -18 13 -29 8 -43 49 -165 58 -171 5 -3 9 -12 9 -20 0 -9 17
-50 37 -92 20 -42 36 -79 34 -81 -1 -2 1 -7 6 -10 9 -7 63 -112 63 -124 0 -4
8 -16 18 -27 9 -11 17 -24 17 -28 0 -4 10 -21 23 -39 12 -17 22 -34 22 -37 0
-3 16 -28 35 -55 19 -26 35 -53 35 -60 0 -6 5 -11 10 -11 6 0 14 -8 18 -19 4
-10 21 -36 39 -57 18 -22 49 -59 69 -84 78 -97 130 -153 228 -248 163 -161
198 -192 207 -186 5 3 9 0 9 -5 0 -6 16 -21 35 -33 57 -38 40 -39 -22 -3 -32
19 -63 39 -70 45 -7 5 -19 10 -28 10 -8 0 -15 5 -15 10 0 6 -5 10 -10 10 -6 0
-41 20 -78 45 -37 25 -76 51 -86 58 -11 6 -28 20 -38 30 -10 9 -23 17 -28 17
-6 0 -13 7 -16 15 -4 8 -12 15 -19 15 -18 0 -132 128 -127 143 1 4 -5 10 -13
13 -8 4 -15 12 -15 20 0 8 -4 14 -10 14 -5 0 -10 6 -10 14 0 8 -8 21 -18 28
-9 7 -23 24 -30 38 -6 14 -32 59 -56 100 -78 132 -169 327 -160 341 3 5 0 9
-5 9 -6 0 -11 6 -11 13 0 7 -9 32 -20 55 -11 22 -20 47 -20 55 0 7 -3 17 -7
21 -4 3 -8 12 -9 19 -1 7 -14 53 -29 102 -29 95 -36 129 -36 157 0 10 -4 20
-10 23 -13 8 -11 35 2 35 6 0 9 -6 6 -14z m4364 -269 c-6 -8 -8 -17 -4 -20 3
-4 1 -7 -5 -7 -14 0 -14 2 -6 24 3 9 11 16 16 16 7 0 6 -5 -1 -13z m-38 -134
c-19 -54 -35 -104 -36 -110 0 -7 -4 -13 -9 -13 -5 0 -6 -4 -3 -10 3 -5 1 -10
-5 -10 -6 0 -10 -6 -9 -12 2 -7 -16 -49 -38 -93 -23 -44 -54 -104 -69 -132
-14 -29 -30 -53 -35 -53 -5 0 -9 -4 -9 -10 0 -17 -74 -120 -86 -120 -20 0 -39
30 -28 45 38 52 94 138 94 145 0 4 7 11 16 14 8 3 13 10 10 15 -4 5 -2 11 2
13 9 3 87 138 87 151 0 4 5 11 10 15 16 12 65 113 59 123 -3 5 0 9 5 9 6 0 11
4 11 9 0 17 50 121 59 121 4 0 -7 -44 -26 -97z m144 -75 c-3 -8 -6 -5 -6 6 -1
11 2 17 5 13 3 -3 4 -12 1 -19z m-92 -45 c-4 -10 -16 -40 -27 -66 -10 -27 -32
-75 -48 -108 -17 -32 -30 -62 -29 -65 0 -4 -3 -10 -8 -13 -11 -8 -57 -104 -55
-113 1 -5 -3 -8 -8 -8 -6 0 -15 -10 -20 -22 -11 -25 -22 -43 -62 -101 -20 -28
-29 -35 -33 -25 -3 8 16 48 43 89 75 113 87 133 84 142 -1 4 3 7 8 7 6 0 10 6
10 13 0 7 11 28 25 47 13 18 22 37 19 41 -3 5 -1 9 4 9 5 0 12 8 15 18 3 9 17
43 30 74 14 32 22 60 19 63 -3 3 0 5 6 5 7 0 11 3 11 8 -3 15 1 22 12 22 7 0
8 -7 4 -17z m-3551 -924 c7 2 69 -29 76 -38 6 -7 240 -124 255 -127 6 -2 48
-19 95 -39 47 -19 92 -37 100 -38 8 -2 69 -29 135 -61 66 -33 129 -62 140 -66
11 -4 34 -14 50 -21 17 -7 35 -14 40 -15 10 -1 33 -9 73 -25 13 -5 33 -9 45
-10 21 0 21 -1 2 -8 -11 -5 -24 -5 -30 -1 -5 4 -26 10 -45 13 -31 4 -65 11
-120 22 -8 2 -15 4 -15 5 0 1 -5 3 -50 13 -73 16 -86 21 -91 28 -3 5 -14 9
-25 9 -10 0 -27 4 -37 9 -35 18 -77 34 -84 33 -5 -1 -8 2 -8 6 0 5 -6 9 -12 9
-13 0 -48 16 -156 74 -103 55 -180 104 -194 124 -5 7 -8 7 -8 0 0 -5 -7 -1
-15 9 -8 11 -15 17 -15 13 0 -7 -14 4 -76 56 -18 16 -36 28 -41 27 -4 -1 -9 4
-11 12 -3 11 -2 11 6 0 5 -8 12 -13 16 -13z m2725 -150 c2 -6 -1 -9 -6 -6 -5
3 -22 -3 -39 -14 -16 -11 -39 -24 -51 -29 -13 -5 -23 -14 -23 -20 0 -6 -4 -9
-9 -5 -5 3 -17 -2 -25 -11 -9 -8 -16 -13 -16 -10 0 9 -103 -46 -112 -58 -4 -6
-8 -7 -8 -3 0 4 -10 2 -22 -5 -13 -7 -26 -13 -30 -14 -5 -1 -11 -3 -15 -4 -5
-1 -11 -2 -15 -1 -5 0 -8 -4 -8 -10 0 -6 -7 -9 -15 -6 -8 4 -17 2 -19 -2 -3
-5 -26 -14 -51 -21 -25 -7 -48 -17 -51 -22 -3 -4 -10 -6 -15 -2 -6 3 -18 2
-27 -2 -31 -13 -87 -24 -150 -28 -24 -2 -46 -6 -49 -10 -10 -9 -43 -7 -43 3 0
8 38 22 50 19 3 -1 19 5 35 14 17 9 45 22 63 28 17 7 32 17 32 22 0 5 4 7 9 4
5 -4 38 7 73 24 34 16 71 30 81 30 9 0 17 4 17 8 0 7 26 18 90 37 16 5 54 22
120 53 41 20 78 35 83 34 4 -1 7 3 7 8 0 6 6 10 13 10 6 0 23 9 37 20 24 18
26 18 55 0 16 -10 31 -24 34 -31z m-909 -233 c0 -3 -4 -8 -10 -11 -5 -3 -10
-1 -10 4 0 6 5 11 10 11 6 0 10 -2 10 -4z m-40 -15 c0 -8 -7 -10 -57 -15 -18
-1 -38 -7 -45 -13 -8 -6 -59 -9 -128 -7 -156 5 -150 4 -150 13 0 4 -13 6 -29
3 -16 -2 -31 0 -34 5 -3 4 85 8 194 8 110 -1 202 1 204 5 5 9 45 10 45 1z
m140 -41 c0 -5 -2 -10 -4 -10 -3 0 -8 5 -11 10 -3 6 -1 10 4 10 6 0 11 -4 11
-10z"/>
<path d="M2761 6450 c-10 -7 -8 -1386 2 -1396 8 -8 164 -7 178 2 5 3 9 2 9 -3
0 -8 84 -8 97 0 5 3 8 226 8 495 -1 438 1 489 15 484 8 -3 22 -14 31 -24 9
-10 20 -18 24 -18 4 0 18 -11 31 -26 13 -14 24 -22 24 -17 0 4 10 -3 23 -15
19 -19 56 -49 181 -145 16 -12 36 -30 45 -39 8 -10 19 -18 24 -18 4 0 18 -11
31 -25 13 -14 28 -25 35 -25 6 0 16 -9 23 -20 7 -11 16 -20 21 -20 4 0 31 -18
59 -41 43 -33 54 -38 62 -27 6 8 18 17 26 20 14 6 162 126 205 166 11 11 28
22 38 25 9 4 17 11 17 17 0 5 6 10 14 10 8 0 21 8 28 18 7 10 20 23 29 28 17
9 30 19 161 128 36 31 68 56 70 56 2 0 3 -223 2 -495 l-1 -495 52 1 c29 1 57
-1 63 -5 6 -3 13 -2 16 3 3 5 21 6 38 2 18 -4 44 -6 58 -4 14 1 38 4 55 5 l30
3 0 690 c1 380 -1 695 -2 700 -5 16 -287 13 -307 -4 -9 -7 -16 -11 -16 -8 0 6
-14 -6 -89 -77 -22 -22 -41 -36 -41 -32 0 4 -13 -5 -29 -21 -16 -15 -43 -39
-61 -53 -18 -14 -44 -35 -59 -47 -14 -12 -60 -49 -101 -83 -41 -34 -90 -75
-107 -93 -18 -17 -33 -28 -33 -24 0 4 -13 -6 -30 -23 -30 -30 -50 -38 -50 -20
0 6 -5 10 -10 10 -10 0 -196 152 -251 205 -14 14 -30 25 -34 25 -4 0 -20 14
-35 30 -15 17 -31 30 -35 30 -4 0 -18 10 -30 23 -12 12 -38 34 -56 49 -19 15
-60 49 -92 75 l-57 48 -146 0 c-79 0 -148 -2 -153 -5z"/>
<path d="M1701 6440 c-9 -6 -7 -237 1 -246 4 -3 121 -6 260 -6 227 1 255 -1
274 -17 20 -16 22 -26 20 -165 -1 -136 -3 -148 -21 -159 -14 -8 -97 -12 -270
-13 -138 0 -255 -3 -261 -6 -6 -4 -10 -57 -9 -131 l1 -124 269 -269 c148 -147
270 -263 273 -256 2 7 8 9 14 6 10 -6 79 -7 143 -1 17 1 42 -1 57 -5 15 -3 30
-2 34 3 3 5 10 7 15 3 16 -9 111 -6 121 4 5 5 -93 109 -247 259 l-257 251 146
-2 c114 -1 154 2 183 15 40 18 116 87 108 99 -3 4 2 13 10 20 8 7 15 20 15 30
0 9 3 20 7 23 9 10 10 508 1 514 -5 2 -8 12 -8 22 0 36 -58 99 -117 128 l-58
27 -348 0 c-192 1 -352 -1 -356 -4z"/>
<path d="M5066 4058 c-17 -33 -44 -76 -61 -94 -18 -19 -30 -36 -28 -38 7 -6
-120 -105 -134 -106 -7 0 -13 -4 -13 -9 0 -10 -92 -51 -115 -51 -22 0 -9 -22
52 -87 127 -136 143 -154 143 -161 0 -11 47 -52 60 -52 5 0 56 47 113 105 58
58 108 105 111 105 8 0 166 158 166 167 0 7 -18 26 -171 185 l-94 97 -29 -61z"/>
<path d="M5413 3829 c-48 -41 -206 -192 -379 -361 -50 -48 -93 -85 -97 -81 -4
3 -7 -2 -7 -11 0 -10 22 -48 48 -85 27 -36 51 -75 55 -85 8 -21 1 -27 243 208
62 60 118 112 125 117 7 4 59 54 116 110 79 79 100 106 91 116 -6 7 -15 13
-20 13 -5 0 -21 12 -37 28 -29 28 -59 53 -78 65 -6 4 -33 -11 -60 -34z"/>
<path d="M5630 3720 c0 -6 -14 -23 -31 -38 -17 -15 -57 -52 -89 -82 -33 -30
-98 -91 -146 -135 -48 -44 -98 -93 -113 -109 -14 -16 -48 -50 -75 -75 -124
-115 -118 -108 -104 -133 7 -12 19 -28 26 -36 6 -7 12 -18 12 -23 0 -5 16 -31
35 -58 19 -26 35 -52 35 -55 0 -4 6 -13 13 -21 6 -7 21 -25 32 -39 11 -15 25
-32 30 -39 6 -6 21 -28 35 -47 13 -19 34 -46 47 -59 13 -13 23 -30 23 -37 0
-8 7 -14 15 -14 8 0 15 -5 15 -11 0 -11 16 -31 100 -126 15 -18 26 -33 24 -33
-2 0 10 -15 28 -34 18 -19 60 -64 93 -101 33 -36 79 -86 103 -110 23 -25 42
-48 42 -52 0 -10 649 -658 658 -658 7 0 22 -15 199 -186 51 -49 95 -89 98 -89
4 0 24 -18 46 -40 22 -22 42 -40 46 -40 3 0 22 -17 42 -38 21 -21 48 -46 62
-55 13 -10 44 -37 69 -61 25 -24 72 -65 105 -91 33 -27 66 -57 73 -67 8 -11
20 -18 28 -16 8 2 139 128 292 281 l278 278 -23 34 c-13 19 -23 38 -23 43 0 5
-10 20 -22 33 -13 14 -29 36 -36 49 -17 34 -77 118 -109 155 -7 7 -13 17 -13
20 0 4 -16 25 -35 47 -19 23 -32 45 -29 49 3 5 -1 9 -9 9 -13 0 -40 31 -46 52
-1 4 -21 26 -44 50 -47 48 -77 85 -77 94 0 3 -22 27 -50 54 -27 27 -50 52 -50
57 0 5 -13 19 -30 33 -16 14 -30 29 -30 34 0 19 -442 468 -755 768 -137 131
-266 255 -285 274 -20 19 -39 34 -43 34 -11 0 -67 59 -67 70 0 6 -4 10 -10 10
-5 0 -20 10 -33 23 -14 12 -44 39 -68 59 -24 21 -56 48 -71 62 -16 13 -28 28
-28 35 0 6 -4 10 -9 9 -9 -3 -16 2 -82 64 -38 34 -69 47 -69 28z"/>
<path d="M7625 1275 c-85 -85 -157 -155 -161 -155 -8 0 -224 -217 -224 -225 0
-10 28 -35 39 -35 6 0 11 -3 11 -8 0 -9 133 -92 149 -92 6 0 11 -5 11 -11 0
-5 5 -7 10 -4 6 3 10 1 10 -4 0 -6 3 -10 8 -9 4 1 32 -6 64 -15 79 -24 193
-22 263 4 30 11 55 24 55 29 0 5 9 12 21 15 11 4 24 18 29 31 5 13 14 24 20
24 8 0 47 64 48 80 0 3 5 18 11 33 22 57 2 205 -35 262 -8 12 -11 25 -7 28 3
4 2 7 -3 7 -6 0 -16 16 -24 35 -8 19 -17 35 -22 35 -4 0 -8 6 -8 14 0 8 -3 16
-7 18 -5 2 -21 20 -36 40 -55 74 -50 76 -222 -97z"/>
</g>
</svg>
